<?xml version="1.0" encoding="UTF-8"?>
<svg id="Layer_2" data-name="Layer 2" xmlns="http://www.w3.org/2000/svg" viewBox="0 0 1325.87 207.6">
  <defs>
    <style>
      .cls-1 {
        fill: #fff;
      }

      .cls-2 {
        fill: #e9592b;
      }
    </style>
  </defs>
  <g id="Layer_1-2" data-name="Layer 1">
    <g>
      <g>
        <path class="cls-2" d="m98.18,161.51l45.82,45.69v-73.22c0-8.75-3.47-17.14-9.64-23.33l-41.8-41.96v79.28c0,5.08,2.02,9.95,5.62,13.53Z"/>
        <path class="cls-2" d="m381.59,0l-46.82,46.71c-3.03,3.03-7.14,4.72-11.42,4.72h-50.53c-6.83,0-13.39,2.72-18.22,7.55l-58.65,58.65c-5.13,5.13-13.45,5.13-18.59,0l-58.65-58.65c-4.83-4.83-11.39-7.55-18.22-7.55h-42.25c-4.28,0-8.39-1.7-11.42-4.72L0,0h117.54c7.39,0,14.47,2.94,19.69,8.17l43.15,43.28c3.46,3.47,9.07,3.47,12.53,0l43.28-43.28C241.39,2.98,248.46.05,255.83.05l125.76-.05Z"/>
        <path class="cls-2" d="m360.44,76.48l-39.17,39.17c-3.03,3.03-7.15,4.74-11.44,4.74h-17.86c-6.2,0-11.23,5.03-11.23,11.23v16.73c0,5.08-2.02,9.94-5.61,13.53l-45.82,45.72v-73.56c0-8.74,3.46-17.12,9.63-23.32l26.5-26.63c4.85-4.87,11.43-7.61,18.3-7.61h76.71Z"/>
      </g>
      <path class="cls-1" d="m685.53,84.46c7.69,0,14.22-2.71,19.58-8.06,5.36-5.36,8.06-11.88,8.06-19.58v-1.22c0-7.75-2.71-14.27-8.06-19.63-5.36-5.36-11.88-8.06-19.58-8.06h-64.78c-7.75,0-14.27,2.71-19.63,8.06s-8.06,11.88-8.06,19.63v37.09c0,7.69,2.71,14.27,8.06,19.63s11.88,8.06,19.63,8.06h88.18v-17.88h-77.89c-2.92,0-5.36-1.06-7.32-3.13-2.02-2.12-2.97-4.56-2.97-7.37v-7.53h64.78Zm-64.78-28.17c0-3.02.95-5.57,2.97-7.53,1.96-2.02,4.4-2.97,7.32-2.97h44.14c2.92,0,5.36,1.06,7.37,3.13,1.96,2.12,2.97,4.56,2.97,7.37s-1.01,5.36-2.97,7.32-4.46,2.97-7.37,2.97h-54.44v-10.29Z"/>
      <path class="cls-1" d="m790.74,105.47c-2.02-1.96-4.46-2.97-7.37-2.97h-20.8c-2.81,0-5.25-1.01-7.27-3.08-2.07-2.02-3.08-4.46-3.08-7.27v-30.29h27.96v-17.83h-27.96V4.08h-27.48v88.76c0,7.59,2.65,14.11,8.06,19.47,5.36,5.36,11.83,8.06,19.42,8.06h41.49v-7.53c0-2.92-1.01-5.41-2.97-7.37Z"/>
      <path class="cls-1" d="m912.08,35.97c-5.36-5.36-11.94-8.06-19.63-8.06h-90.14v7.53c0,2.92,1.01,5.36,2.97,7.37,2.02,1.96,4.51,2.97,7.53,2.97h69.34c2.76,0,5.2,1.01,7.22,3.02,2.07,2.07,3.08,4.56,3.08,7.48v7.53h-64.78c-7.69,0-14.22,2.65-19.58,8.01s-8.06,11.94-8.06,19.63v1.22c0,7.69,2.65,14.27,8.06,19.63,5.36,5.36,11.88,8.06,19.58,8.06h64.78c7.69,0,14.27-2.71,19.63-8.06s8.06-11.94,8.06-19.63v-37.09c0-7.75-2.71-14.27-8.06-19.63Zm-19.63,56.03c0,2.92-1.01,5.41-3.08,7.43-2.02,2.07-4.46,3.08-7.22,3.08h-44.3c-2.92,0-5.41-1.06-7.37-3.13-1.96-2.12-2.97-4.56-2.97-7.37s1.01-5.2,3.08-7.27c2.02-2.07,4.46-3.08,7.27-3.08h54.59v10.35Z"/>
      <path class="cls-1" d="m964.07,4.08c-7.59,0-14.06,2.71-19.42,8.06-5.41,5.36-8.06,11.83-8.06,19.42v88.82h27.48v-58.52h22.07v-17.83h-22.07v-11.73c0-2.81,1.01-5.25,3.08-7.27,2.02-2.07,4.46-3.08,7.27-3.08h17.83c2.92,0,5.36-1.01,7.37-2.97,1.96-2.02,2.97-4.46,2.97-7.37v-7.53h-38.52Z"/>
      <path class="cls-1" d="m1051.42,102.5c-2.81,0-5.2-1.01-7.27-3.08s-3.02-4.46-3.02-7.27V4.08h-27.48v88.76c0,7.59,2.65,14.11,8.01,19.47s11.88,8.06,19.47,8.06h38.58v-17.88h-28.29Z"/>
      <path class="cls-1" d="m1182.84,84.46c7.75,0,14.27-2.71,19.63-8.06,5.36-5.36,8.06-11.88,8.06-19.58v-1.22c0-7.75-2.71-14.27-8.06-19.63-5.36-5.36-11.88-8.06-19.63-8.06h-64.78c-7.69,0-14.22,2.71-19.58,8.06s-8.06,11.88-8.06,19.63v37.09c0,7.69,2.71,14.27,8.06,19.63s11.88,8.06,19.58,8.06h78.95l6.58-17.88h-75.18c-2.92,0-5.36-1.06-7.32-3.13-2.02-2.12-3.02-4.56-3.02-7.37v-7.53h64.78Zm-64.78-28.17c0-3.02,1.01-5.57,3.02-7.53,1.96-2.02,4.4-2.97,7.32-2.97h44.14c2.92,0,5.36,1.06,7.32,3.13,2.02,2.12,2.97,4.56,2.97,7.37s-.96,5.36-2.97,7.32c-1.96,2.02-4.4,2.97-7.32,2.97h-54.49v-10.29Z"/>
      <path class="cls-1" d="m1311.28,78.09c-.9-1.38-2.02-2.81-3.4-4.3,2.55-2.71,4.4-5.68,5.57-8.97l12.41-36.93h-29.55l-9.97,30.67c-1.54,4.19-4.72,6.26-9.66,6.26h-14.17c-2.23,0-4.24-.64-6.15-1.91-1.86-1.27-3.08-2.92-3.66-4.88l-9.82-30.14h-29.55l12.41,37.14c1.17,3.02,3.02,5.94,5.57,8.75-2.55,2.65-4.4,5.62-5.57,8.91l-12.41,37.67h29.55l9.97-31.36c1.75-4.19,4.99-6.31,9.66-6.31h14.17c2.23,0,4.24.64,6.05,1.86,1.8,1.22,3.08,2.86,3.77,4.99l9.82,30.83h29.55l-12.57-37.83c-.48-1.64-1.17-3.13-2.02-4.46Z"/>
      <path class="cls-1" d="m568.7,35.97c-5.36-5.36-11.88-8.06-19.58-8.06h-96.46s-.06,0-.09,0h-27.59v27.56s-.01.08-.01.13v64.78h27.7V45.78h34.49v74.6h27.48V45.78h24.14c2.92,0,5.36.95,7.37,2.97,1.96,1.96,2.97,4.51,2.97,7.53v64.09h27.64V55.6c0-7.75-2.65-14.27-8.06-19.63Z"/>
      <g>
        <path class="cls-1" d="m453.81,184.58v-21.48l-8.87,16.3h-2.8l-8.87-16.3v21.48h-4.8v-30.13h5.09l9.97,18.38,9.97-18.38h5.09v30.13h-4.79Z"/>
        <path class="cls-1" d="m494.56,180.38v4.2h-20.67v-30.13h20.28v4.2h-15.49v8.62h13.46v3.9h-13.46v9.21h15.88Z"/>
        <path class="cls-1" d="m530.09,158.65h-10.02v25.93h-4.79v-25.93h-10.06v-4.2h24.88v4.2Z"/>
        <path class="cls-1" d="m548.46,154.45h4.5l11.71,30.13h-5.01l-2.95-8.19h-12.05l-2.96,8.19h-5.01l11.76-30.13Zm6.99,18.42l-4.75-13.2-4.77,13.2h9.51Z"/>
        <path class="cls-1" d="m576.9,184.58v-30.13h4.79v25.93h16.13v4.2h-20.92Z"/>
        <path class="cls-1" d="m614.97,163.28v21.31h-4.8v-30.13h3.91l17.06,21.77v-21.73h4.75v30.09h-4.11l-16.81-21.31Z"/>
        <path class="cls-1" d="m671.89,180.38v4.2h-20.67v-30.13h20.28v4.2h-15.49v8.62h13.46v3.9h-13.46v9.21h15.88Z"/>
        <path class="cls-1" d="m704.28,184.58v-30.13h4.79v15.55l14.13-15.6h5.26l-11.84,13.35,12.52,16.83h-5.39l-10.19-13.81-4.5,4.67v9.14h-4.79Z"/>
        <path class="cls-1" d="m751.52,184.79c-2.12,0-4.06-.42-5.82-1.27-1.75-.85-3.27-2-4.56-3.46-1.29-1.46-2.28-3.1-2.97-4.93-.69-1.82-1.04-3.7-1.04-5.62s.37-3.93,1.1-5.75c.74-1.82,1.76-3.45,3.08-4.88s2.84-2.56,4.59-3.4c1.74-.83,3.66-1.25,5.75-1.25s4.14.44,5.88,1.32c1.74.88,3.24,2.05,4.52,3.52s2.25,3.11,2.93,4.92c.68,1.81,1.02,3.68,1.02,5.6s-.35,3.89-1.06,5.71c-.7,1.82-1.72,3.45-3.03,4.88-1.32,1.43-2.84,2.55-4.59,3.37-1.74.82-3.67,1.23-5.79,1.23Zm-9.51-15.28c0,1.44.22,2.82.66,4.14.44,1.32,1.07,2.49,1.91,3.52.83,1.04,1.84,1.85,3.02,2.45,1.17.59,2.51.89,4.01.89s2.89-.31,4.07-.94c1.19-.62,2.2-1.46,3.02-2.52s1.45-2.24,1.87-3.54c.42-1.3.64-2.63.64-3.99,0-1.45-.22-2.82-.68-4.12-.45-1.3-1.1-2.47-1.95-3.5-.84-1.03-1.86-1.84-3.03-2.44-1.18-.59-2.49-.89-3.93-.89-1.55,0-2.92.31-4.1.94-1.17.62-2.17,1.46-2.99,2.5-.82,1.05-1.45,2.22-1.87,3.52-.42,1.3-.63,2.63-.63,3.99Z"/>
        <path class="cls-1" d="m784.24,163.28v21.31h-4.79v-30.13h3.9l17.06,21.77v-21.73h4.76v30.09h-4.12l-16.81-21.31Z"/>
        <path class="cls-1" d="m838.32,161.54c-.25-.31-.66-.64-1.21-1-.55-.35-1.19-.68-1.91-.97-.72-.3-1.51-.55-2.38-.77-.86-.21-1.75-.32-2.65-.32-1.98,0-3.45.37-4.41,1.1-.96.73-1.44,1.75-1.44,3.04,0,.96.27,1.71.81,2.28.53.56,1.36,1.02,2.48,1.37,1.11.35,2.5.73,4.13,1.12,2.07.48,3.84,1.06,5.33,1.73,1.48.68,2.63,1.56,3.44,2.66s1.21,2.56,1.21,4.39c0,1.49-.29,2.79-.87,3.89s-1.38,1.99-2.4,2.68c-1.02.69-2.19,1.2-3.52,1.54s-2.76.51-4.29.51-2.99-.17-4.48-.49c-1.48-.33-2.9-.79-4.24-1.4-1.34-.61-2.6-1.35-3.76-2.23l2.21-4.07c.34.37.87.77,1.57,1.21.71.44,1.52.86,2.44,1.25.92.4,1.93.73,3.02,1s2.2.4,3.33.4c1.9,0,3.35-.33,4.35-.98,1-.66,1.5-1.62,1.5-2.89,0-.98-.33-1.78-.99-2.39-.67-.6-1.61-1.12-2.84-1.54-1.23-.42-2.71-.84-4.44-1.27-1.98-.51-3.64-1.08-4.97-1.73-1.33-.65-2.32-1.47-2.97-2.46-.65-.98-.97-2.26-.97-3.84,0-1.97.47-3.64,1.42-5.01s2.26-2.39,3.93-3.08c1.67-.69,3.52-1.04,5.56-1.04,1.36,0,2.65.15,3.89.45,1.23.3,2.37.7,3.44,1.21,1.06.51,2,1.09,2.82,1.74l-2.12,3.91Z"/>
        <path class="cls-1" d="m877.03,158.65h-10.02v25.93h-4.8v-25.93h-10.06v-4.2h24.87v4.2Z"/>
        <path class="cls-1" d="m889.55,184.58v-30.13h13.11c1.36,0,2.6.28,3.74.85,1.13.56,2.11,1.31,2.95,2.25.83.93,1.49,1.98,1.95,3.16s.7,2.36.7,3.54c0,1.36-.24,2.64-.72,3.84-.48,1.21-1.17,2.24-2.06,3.12-.89.88-1.93,1.51-3.12,1.91l7.09,11.46h-5.35l-6.53-10.48h-6.96v10.48h-4.79Zm4.79-14.68h8.28c.88,0,1.65-.26,2.33-.79s1.22-1.21,1.62-2.06c.39-.85.59-1.78.59-2.8s-.23-1.99-.7-2.84-1.05-1.52-1.76-2.02c-.7-.49-1.49-.74-2.33-.74h-8.03v11.25Z"/>
        <path class="cls-1" d="m938.61,184.79c-2.4,0-4.44-.41-6.09-1.23-1.65-.82-2.98-1.94-3.99-3.35s-1.74-3.03-2.21-4.84c-.47-1.81-.7-3.69-.7-5.64v-15.28h4.8v15.28c0,1.38.13,2.72.4,4.01s.72,2.44,1.34,3.46c.62,1.02,1.46,1.82,2.5,2.42,1.05.59,2.35.89,3.91.89s2.94-.3,3.99-.89c1.05-.6,1.89-1.41,2.52-2.47.64-1.05,1.09-2.21,1.36-3.48.27-1.27.4-2.59.4-3.95v-15.28h4.8v15.28c0,2.07-.25,4.01-.74,5.83-.5,1.82-1.26,3.43-2.3,4.82s-2.38,2.47-4.03,3.25c-1.66.78-3.64,1.17-5.96,1.17Z"/>
        <path class="cls-1" d="m966.46,184.58v-30.13h4.79v15.55l14.13-15.6h5.26l-11.84,13.35,12.52,16.83h-5.39l-10.19-13.81-4.5,4.67v9.14h-4.79Z"/>
        <path class="cls-1" d="m999.31,169.26c0-1.84.33-3.64.98-5.41.65-1.77,1.61-3.38,2.87-4.84,1.26-1.46,2.79-2.62,4.59-3.48,1.79-.87,3.84-1.3,6.13-1.3,2.75,0,5.1.62,7.07,1.84,1.97,1.23,3.43,2.81,4.39,4.73l-3.74,2.51c-.54-1.22-1.24-2.18-2.1-2.89-.87-.71-1.8-1.2-2.82-1.49-1.02-.28-2.01-.42-2.97-.42-1.56,0-2.93.32-4.12.95-1.19.64-2.19,1.48-2.99,2.53-.8,1.05-1.4,2.22-1.8,3.52-.39,1.3-.59,2.6-.59,3.9,0,1.47.23,2.88.7,4.2.47,1.33,1.13,2.51,1.99,3.54.86,1.04,1.88,1.85,3.06,2.45,1.17.59,2.47.89,3.88.89.99,0,2.01-.17,3.06-.51,1.05-.34,2.02-.88,2.91-1.61s1.59-1.67,2.1-2.8l3.94,2.21c-.59,1.5-1.55,2.78-2.86,3.82-1.32,1.05-2.8,1.84-4.44,2.37-1.64.54-3.26.81-4.88.81-2.06,0-3.97-.45-5.73-1.34-1.75-.89-3.27-2.08-4.56-3.56-1.29-1.49-2.28-3.16-2.99-5.01-.7-1.85-1.06-3.73-1.06-5.62Z"/>
        <path class="cls-1" d="m1038.74,184.58v-30.13h4.79v30.13h-4.79Z"/>
        <path class="cls-1" d="m1056.95,179.02c.45.34,1.15.67,2.08.99.93.33,2.04.49,3.31.49s2.26-.21,3.04-.61c.78-.4,1.38-1.02,1.8-1.85.42-.82.72-1.89.87-3.18.16-1.28.23-2.81.23-4.58v-15.84h4.76v15.19c0,2.22-.12,4.25-.36,6.1-.24,1.85-.72,3.46-1.42,4.82-.71,1.36-1.76,2.4-3.17,3.13-1.4.73-3.27,1.09-5.62,1.09-1.39,0-2.62-.16-3.69-.47s-2.07-.78-2.97-1.4l1.15-3.91Z"/>
        <path class="cls-1" d="m1108.65,180.38v4.2h-20.67v-30.13h20.28v4.2h-15.49v8.62h13.46v3.9h-13.46v9.21h15.88Z"/>
      </g>
    </g>
  </g>
</svg>