<?xml version="1.0" encoding="UTF-8"?>
<svg id="Layer_2" data-name="Layer 2" xmlns="http://www.w3.org/2000/svg" viewBox="0 0 1500 1485.76">
  <g id="Layer_1-2" data-name="Layer 1">
    <g>
      <path d="m1500,73.16v57.2c-1.04.35-2.01.95-2.83,1.77l-36.62,36.62c-4.41,4.41-10.39,6.89-16.62,6.89l-92.15.04h-.01s0,0,0,0h-14.27l14.27-14.23v-48.02c0-7.39,2.93-14.49,8.14-19.73l22.43-22.53c4.1-4.13,9.67-6.44,15.49-6.44h24.99c.01-.15.02-.29.02-.43v-14.16c0-2.3.51-4.55,1.43-6.61h-35.68c-5.78,0-11.33,2.3-15.42,6.39l-49.63,49.63c-4.35,4.34-11.39,4.34-15.73,0l-49.63-49.63c-4.09-4.09-9.64-6.39-15.42-6.39h-35.76c-.89,0-1.77-.09-2.63-.26,1.1,2.22,1.7,4.67,1.7,7.19v67.09l-35.37-35.51c-5.22-5.24-8.15-12.34-8.15-19.74V4.82l-4.83-4.82h99.47c6.25,0,12.24,2.49,16.66,6.92l36.51,36.63c2.93,2.93,7.67,2.94,10.6.01l36.62-36.62c4.41-4.41,10.39-6.89,16.63-6.89l92.15-.04h14.27s-14.26,14.23-14.26,14.23v48.01c0,7.4-2.93,14.49-8.15,19.74l-22.42,22.53c-4.1,4.12-9.68,6.44-15.49,6.44h-24.99c-.01.14-.03.28-.03.43v14.16c0,2.3-.5,4.54-1.42,6.6h35.68c5.78,0,11.33-2.29,15.42-6.38l49.63-49.63c1.54-1.55,3.42-2.54,5.4-2.98Z"/>
      <path d="m1500,249.1v57.4c-1.53-.53-2.96-1.41-4.19-2.63l-49.63-49.63c-4.09-4.09-9.63-6.39-15.42-6.39h-35.75c-.89,0-1.77-.09-2.63-.26,1.1,2.22,1.7,4.67,1.7,7.18v67.1l-35.37-35.51c-5.23-5.24-8.16-12.34-8.16-19.74v-57.48l-4.83-4.82h99.47c6.26,0,12.25,2.49,16.66,6.92l36.52,36.63c.5.5,1.05.91,1.63,1.23Z"/>
      <path d="m1500,481.8v57.2c-1.04.34-2.01.94-2.83,1.76l-36.62,36.62c-4.41,4.41-10.39,6.89-16.62,6.89l-92.15.04h-.01s0,0,0,0h-14.27s14.27-14.23,14.27-14.23v-48.01c0-7.4,2.93-14.49,8.14-19.74l22.43-22.53c4.1-4.12,9.67-6.44,15.49-6.44h24.99c.01-.14.02-.28.02-.43v-14.16c0-2.3.51-4.54,1.43-6.6h-35.68c-5.78,0-11.33,2.29-15.42,6.38l-49.63,49.63c-4.35,4.35-11.39,4.35-15.73,0l-49.63-49.63c-4.09-4.09-9.64-6.38-15.42-6.38h-35.76c-.89,0-1.77-.09-2.63-.26,1.1,2.21,1.7,4.66,1.7,7.18v67.09l-35.37-35.5c-5.22-5.25-8.15-12.34-8.15-19.75v-57.47l-4.83-4.82h99.47c6.25,0,12.24,2.49,16.66,6.91l36.51,36.63c2.93,2.94,7.67,2.94,10.6,0l36.62-36.62c4.41-4.41,10.39-6.89,16.63-6.89l92.15-.04h14.27l-14.26,14.23v48.02c0,7.39-2.93,14.49-8.15,19.73l-22.42,22.53c-4.1,4.13-9.68,6.44-15.49,6.44h-24.99c-.01.15-.03.29-.03.43v14.16c0,2.3-.5,4.55-1.42,6.61h35.68c5.78,0,11.33-2.3,15.42-6.39l49.63-49.63c1.54-1.54,3.42-2.53,5.4-2.97Z"/>
      <path d="m1387.37,336.47c-5.78,0-11.33-2.3-15.42-6.39l-49.63-49.63c-4.34-4.34-11.39-4.34-15.73,0l-49.63,49.63c-4.09,4.09-9.64,6.39-15.42,6.39h-35.68c.92-2.06,1.43-4.3,1.43-6.61v-14.16c0-.15.02-.29.02-.43h24.99c5.81,0,11.39-2.32,15.49-6.44l22.42-22.53c5.22-5.24,8.15-12.34,8.15-19.73v-48.01l14.26-14.23h-14.26s0,0,0,0h-.01s-92.15.05-92.15.05c-6.24,0-12.21,2.48-16.62,6.89l-36.62,36.62c-2.93,2.93-7.68,2.92-10.6,0l-36.51-36.63c-4.41-4.43-10.41-6.92-16.66-6.92h-99.47l4.83,4.82v57.48c0,7.4,2.93,14.5,8.16,19.74l35.37,35.51v-67.09c0-2.52-.6-4.97-1.7-7.18.86.17,1.74.26,2.63.26h35.75c5.78,0,11.33,2.3,15.42,6.39l49.63,49.63c4.34,4.34,11.39,4.34,15.73,0l49.63-49.63c4.09-4.09,9.64-6.39,15.42-6.39h35.68c-.92,2.06-1.43,4.3-1.43,6.61v14.16c0,.15-.02.29-.02.43h-24.99c-5.81,0-11.39,2.32-15.49,6.44l-22.43,22.53c-5.22,5.24-8.15,12.34-8.15,19.73v48.01l-14.26,14.23h14.26s0,0,0,0h0s92.15-.05,92.15-.05c6.24,0,12.22-2.48,16.62-6.89l36.62-36.62c2.93-2.93,7.68-2.92,10.6,0l36.51,36.63c4.41,4.43,10.41,6.92,16.66,6.92h99.47l-4.83-4.82v-57.48c0-7.4-2.93-14.5-8.16-19.74l-35.37-35.51v67.09c0,2.52.6,4.97,1.7,7.18-.86-.17-1.74-.26-2.63-.26h-35.75Z"/>
      <path d="m1500,657.73v57.41c-1.53-.54-2.96-1.41-4.19-2.64l-49.63-49.63c-4.09-4.09-9.63-6.39-15.42-6.39h-35.75c-.89,0-1.77-.09-2.63-.25,1.1,2.21,1.7,4.66,1.7,7.18v67.09l-35.37-35.5c-5.23-5.25-8.16-12.35-8.16-19.75v-57.48l-4.83-4.81h99.47c6.26,0,12.25,2.48,16.66,6.91l36.52,36.63c.5.5,1.05.91,1.63,1.23Z"/>
      <path d="m1500,890.42v57.21c-1.04.35-2.01.95-2.83,1.77l-36.62,36.62c-4.41,4.41-10.39,6.89-16.62,6.89l-92.15.03h-.01s0,0,0,0h-14.27s14.27-14.22,14.27-14.22v-48.02c0-7.39,2.93-14.49,8.14-19.73l22.43-22.54c4.1-4.12,9.67-6.43,15.49-6.43h24.99c.01-.15.02-.29.02-.43v-14.16c0-2.3.51-4.55,1.43-6.61h-35.68c-5.78,0-11.33,2.3-15.42,6.39l-49.63,49.63c-4.35,4.34-11.39,4.34-15.73,0l-49.63-49.63c-4.09-4.09-9.64-6.39-15.42-6.39h-35.76c-.89,0-1.77-.09-2.63-.26,1.1,2.22,1.7,4.67,1.7,7.18v67.1l-35.37-35.51c-5.22-5.24-8.15-12.34-8.15-19.74v-57.48l-4.83-4.82h99.47c6.25,0,12.24,2.49,16.66,6.92l36.51,36.63c2.93,2.93,7.67,2.93,10.6.01l36.62-36.63c4.41-4.4,10.39-6.88,16.63-6.89l92.15-.03h14.27s-14.26,14.23-14.26,14.23v48.01c0,7.4-2.93,14.49-8.15,19.73l-22.42,22.54c-4.1,4.12-9.68,6.44-15.49,6.44h-24.99c-.01.14-.03.28-.03.43v14.16c0,2.3-.5,4.54-1.42,6.6h35.68c5.78,0,11.33-2.3,15.42-6.39l49.63-49.63c1.54-1.54,3.42-2.54,5.4-2.98Z"/>
      <path d="m1387.37,745.11c-5.78,0-11.33-2.3-15.42-6.39l-49.63-49.63c-4.34-4.34-11.39-4.34-15.73,0l-49.63,49.63c-4.09,4.09-9.64,6.39-15.42,6.39h-35.68c.92-2.06,1.43-4.3,1.43-6.61v-14.16c0-.15.02-.29.02-.43h24.99c5.81,0,11.39-2.32,15.49-6.44l22.42-22.53c5.22-5.24,8.15-12.34,8.15-19.73v-48.01l14.26-14.23h-14.26s0,0,0,0h-.01s-92.15.05-92.15.05c-6.24,0-12.21,2.48-16.62,6.89l-36.62,36.62c-2.93,2.93-7.68,2.92-10.6,0l-36.51-36.63c-4.41-4.43-10.41-6.92-16.66-6.92h-99.47l4.83,4.82v57.48c0,7.4,2.93,14.5,8.16,19.74l35.37,35.51v-67.09c0-2.52-.6-4.97-1.7-7.18.86.17,1.74.26,2.63.26h35.75c5.78,0,11.33,2.3,15.42,6.39l49.63,49.63c4.34,4.34,11.39,4.34,15.73,0l49.63-49.63c4.09-4.09,9.64-6.39,15.42-6.39h35.68c-.92,2.06-1.43,4.3-1.43,6.61v14.16c0,.15-.02.29-.02.43h-24.99c-5.81,0-11.39,2.32-15.49,6.44l-22.43,22.53c-5.22,5.24-8.15,12.34-8.15,19.73v48.01l-14.26,14.23h14.26s0,0,0,0h0s92.15-.05,92.15-.05c6.24,0,12.22-2.48,16.62-6.89l36.62-36.62c2.93-2.93,7.68-2.92,10.6,0l36.51,36.63c4.41,4.43,10.41,6.92,16.66,6.92h99.47l-4.83-4.82v-57.48c0-7.4-2.93-14.5-8.16-19.74l-35.37-35.51v67.09c0,2.52.6,4.97,1.7,7.18-.86-.17-1.74-.26-2.63-.26h-35.75Z"/>
      <path d="m1500,1066.37v57.4c-1.53-.53-2.96-1.41-4.19-2.63l-49.63-49.63c-4.09-4.09-9.63-6.39-15.42-6.39h-35.75c-.89,0-1.77-.09-2.63-.26,1.1,2.21,1.7,4.66,1.7,7.18v67.1l-35.37-35.51c-5.23-5.24-8.16-12.34-8.16-19.74v-57.48l-4.83-4.82h99.47c6.26,0,12.25,2.49,16.66,6.92l36.52,36.62c.5.5,1.05.91,1.63,1.24Z"/>
      <path d="m1500,1299.06v57.21c-1.04.34-2.01.94-2.83,1.76l-36.62,36.62c-4.41,4.41-10.39,6.89-16.62,6.89l-92.15.04h-.01s0,0,0,0h-14.27l14.27-14.23v-48.01c0-7.4,2.93-14.49,8.14-19.74l22.43-22.53c4.1-4.12,9.67-6.44,15.49-6.44h24.99c.01-.14.02-.28.02-.43v-14.16c0-2.3.51-4.54,1.43-6.61h-35.68c-5.78,0-11.33,2.3-15.42,6.39l-49.63,49.63c-4.35,4.35-11.39,4.35-15.73,0l-49.63-49.63c-4.09-4.09-9.64-6.39-15.42-6.39h-35.76c-.89,0-1.77-.08-2.63-.25,1.1,2.21,1.7,4.66,1.7,7.18v67.09l-35.37-35.5c-5.22-5.25-8.15-12.35-8.15-19.75v-57.47l-4.83-4.82h99.47c6.25,0,12.24,2.49,16.66,6.91l36.51,36.63c2.93,2.93,7.67,2.94,10.6,0l36.62-36.62c4.41-4.41,10.39-6.89,16.63-6.89l92.15-.04h14.27l-14.26,14.23v48.01c0,7.4-2.93,14.5-8.15,19.74l-22.42,22.53c-4.1,4.12-9.68,6.44-15.49,6.44h-24.99c-.01.14-.03.29-.03.43v14.16c0,2.3-.5,4.55-1.42,6.61h35.68c5.78,0,11.33-2.3,15.42-6.39l49.63-49.63c1.54-1.55,3.42-2.54,5.4-2.98Z"/>
      <path d="m1387.37,1153.74c-5.78,0-11.33-2.3-15.42-6.39l-49.63-49.63c-4.34-4.34-11.39-4.34-15.73,0l-49.63,49.63c-4.09,4.09-9.64,6.39-15.42,6.39h-35.68c.92-2.06,1.43-4.3,1.43-6.61v-14.16c0-.15.02-.29.02-.43h24.99c5.81,0,11.39-2.32,15.49-6.44l22.42-22.53c5.22-5.24,8.15-12.34,8.15-19.73v-48.01l14.26-14.23h-14.26s0,0,0,0h-.01s-92.15.05-92.15.05c-6.24,0-12.21,2.48-16.62,6.89l-36.62,36.62c-2.93,2.93-7.68,2.92-10.6,0l-36.51-36.63c-4.41-4.43-10.41-6.92-16.66-6.92h-99.47l4.83,4.82v57.48c0,7.4,2.93,14.5,8.16,19.74l35.37,35.51v-67.09c0-2.52-.6-4.97-1.7-7.18.86.17,1.74.26,2.63.26h35.75c5.78,0,11.33,2.3,15.42,6.39l49.63,49.63c4.34,4.34,11.39,4.34,15.73,0l49.63-49.63c4.09-4.09,9.64-6.39,15.42-6.39h35.68c-.92,2.06-1.43,4.3-1.43,6.61v14.16c0,.15-.02.29-.02.43h-24.99c-5.81,0-11.39,2.32-15.49,6.44l-22.43,22.53c-5.22,5.24-8.15,12.34-8.15,19.73v48.01l-14.26,14.23h14.26s0,0,0,0h0s92.15-.05,92.15-.05c6.24,0,12.22-2.48,16.62-6.89l36.62-36.62c2.93-2.93,7.68-2.92,10.6,0l36.51,36.63c4.41,4.43,10.41,6.92,16.66,6.92h99.47l-4.83-4.82v-57.48c0-7.4-2.93-14.5-8.16-19.74l-35.37-35.51v67.09c0,2.52.6,4.97,1.7,7.18-.86-.17-1.74-.26-2.63-.26h-35.75Z"/>
      <path d="m1500,1475v10.76h-48.2l-5.62-5.62c-4.09-4.09-9.63-6.39-15.42-6.39h-35.75c-.89,0-1.77-.09-2.63-.26,1.1,2.22,1.7,4.67,1.7,7.19v5.08h-43.53v-50.72l-4.83-4.82h99.47c6.26,0,12.25,2.49,16.66,6.92l36.52,36.63c.5.5,1.05.91,1.63,1.23Z"/>
      <path d="m1292.63,1430.22l-14.27,14.24v41.3h-43.52v-5.4c0-2.3.5-4.55,1.42-6.61h-35.68c-5.78,0-11.33,2.3-15.42,6.39l-5.62,5.62h-103.75l-5.62-5.62c-4.09-4.09-9.64-6.39-15.42-6.39h-35.75c-.89,0-1.77-.09-2.63-.26,1.09,2.22,1.7,4.67,1.7,7.19v5.08h-43.53v-50.72l-4.83-4.82h99.47c6.25,0,12.25,2.49,16.66,6.92l36.51,36.63c2.93,2.93,7.68,2.94,10.61,0l36.62-36.62c4.41-4.41,10.39-6.89,16.62-6.89l92.15-.04h14.28Z"/>
      <path d="m1090.35.01l-92.15.04c-6.24,0-12.21,2.48-16.62,6.89l-36.62,36.62c-2.93,2.93-7.68,2.92-10.6,0l-36.51-36.63C893.42,2.49,887.43,0,881.17,0h-99.47l4.83,4.82v57.48c0,7.4,2.93,14.5,8.16,19.74l35.37,35.51V50.46c0-2.52-.6-4.97-1.7-7.18.86.17,1.74.26,2.63.26h35.75c5.78,0,11.33,2.3,15.42,6.39l49.63,49.63c4.34,4.34,11.39,4.34,15.73,0l49.63-49.63c4.09-4.09,9.64-6.39,15.42-6.39h35.68c-.92,2.06-1.43,4.3-1.43,6.61v14.16c0,.15-.02.29-.02.43h-24.99c-5.81,0-11.39,2.32-15.49,6.44l-22.43,22.53c-5.22,5.24-8.15,12.34-8.15,19.73v48.01l-14.26,14.23h14.26s0,0,0,0h0s92.15-.05,92.15-.05c6.24,0,12.22-2.48,16.62-6.89l36.62-36.62c2.93-2.93,7.68-2.92,10.6,0l36.51,36.63c4.41,4.43,10.41,6.92,16.66,6.92h99.47l-4.83-4.82v-57.48c0-7.4-2.93-14.5-8.16-19.74l-35.37-35.51v67.09c0,2.52.6,4.97,1.7,7.18-.86-.17-1.74-.26-2.63-.26h-35.75c-5.78,0-11.33-2.3-15.42-6.39l-49.63-49.63c-4.34-4.34-11.39-4.34-15.73,0l-49.63,49.63c-4.09,4.09-9.64,6.39-15.42,6.39h-35.68c.92-2.06,1.43-4.3,1.43-6.61v-14.16c0-.15.02-.29.02-.43h24.99c5.81,0,11.39-2.32,15.49-6.44l22.42-22.53c5.22-5.24,8.15-12.34,8.15-19.73V14.24L1104.62,0h-14.26s0,0,0,0h-.01Z"/>
      <path d="m1019.28,520.02c0-.15.02-.29.02-.43h24.99c5.81,0,11.39-2.32,15.49-6.44l22.42-22.53c5.22-5.24,8.15-12.34,8.15-19.73v-48.01l14.26-14.23h-14.26s0,0,0,0h-.01s-92.15.05-92.15.05c-6.24,0-12.21,2.48-16.62,6.89l-36.62,36.62c-2.93,2.93-7.68,2.92-10.6,0l-36.51-36.63c-4.41-4.43-10.41-6.92-16.66-6.92h-99.47l4.83,4.82v57.48c0,7.4,2.93,14.5,8.16,19.74l35.37,35.51v-67.09c0-2.52-.6-4.97-1.7-7.18.86.17,1.74.26,2.63.26h35.75c5.78,0,11.33,2.3,15.42,6.39l49.63,49.63c4.34,4.34,11.39,4.34,15.73,0l49.63-49.63c4.09-4.09,9.64-6.39,15.42-6.39h35.68c-.92,2.06-1.43,4.3-1.43,6.61v14.16c0,.15-.02.29-.02.43h-24.99c-5.81,0-11.39,2.32-15.49,6.44l-22.43,22.53c-5.22,5.24-8.15,12.34-8.15,19.73v48.01l-14.26,14.23h14.26s0,0,0,0h0s92.15-.05,92.15-.05c6.24,0,12.22-2.48,16.62-6.89l36.62-36.62c2.93-2.93,7.68-2.92,10.6,0l36.51,36.63c4.41,4.43,10.41,6.92,16.66,6.92h99.47l-4.83-4.82v-57.48c0-7.4-2.93-14.5-8.16-19.74l-35.37-35.51v67.09c0,2.52.6,4.97,1.7,7.18-.86-.17-1.74-.26-2.63-.26h-35.75c-5.78,0-11.33-2.3-15.42-6.39l-49.63-49.63c-4.34-4.34-11.39-4.34-15.73,0l-49.63,49.63c-4.09,4.09-9.64,6.39-15.42,6.39h-35.68c.92-2.06,1.43-4.3,1.43-6.61v-14.16Z"/>
      <path d="m1011.36,336.47c-5.78,0-11.33-2.3-15.42-6.39l-49.63-49.63c-4.34-4.34-11.39-4.34-15.73,0l-49.63,49.63c-4.09,4.09-9.64,6.39-15.42,6.39h-35.68c.92-2.06,1.43-4.3,1.43-6.61v-14.16c0-.15.02-.29.02-.43h24.99c5.81,0,11.39-2.32,15.49-6.44l22.42-22.53c5.22-5.24,8.15-12.34,8.15-19.73v-48.01l14.26-14.23h-14.26s0,0,0,0h-.01s-92.15.05-92.15.05c-6.24,0-12.21,2.48-16.62,6.89l-36.62,36.62c-2.93,2.93-7.68,2.92-10.6,0l-36.51-36.63c-4.41-4.43-10.41-6.92-16.66-6.92h-99.47l4.83,4.82v57.48c0,7.4,2.93,14.5,8.16,19.74l35.37,35.51v-67.09c0-2.52-.6-4.97-1.7-7.18.86.17,1.74.26,2.63.26h35.75c5.78,0,11.33,2.3,15.42,6.39l49.63,49.63c4.34,4.34,11.39,4.34,15.73,0l49.63-49.63c4.09-4.09,9.64-6.39,15.42-6.39h35.68c-.92,2.06-1.43,4.3-1.43,6.61v14.16c0,.15-.02.29-.02.43h-24.99c-5.81,0-11.39,2.32-15.49,6.44l-22.43,22.53c-5.22,5.24-8.15,12.34-8.15,19.73v48.01l-14.26,14.23h14.26s0,0,0,0h0s92.15-.05,92.15-.05c6.24,0,12.22-2.48,16.62-6.89l36.62-36.62c2.93-2.93,7.68-2.92,10.6,0l36.51,36.63c4.41,4.43,10.41,6.92,16.66,6.92h99.47l-4.83-4.82v-57.48c0-7.4-2.93-14.5-8.16-19.74l-35.37-35.51v67.09c0,2.52.6,4.97,1.7,7.18-.86-.17-1.74-.26-2.63-.26h-35.75Z"/>
      <path d="m1019.28,928.66c0-.15.02-.29.02-.43h24.99c5.81,0,11.39-2.32,15.49-6.44l22.42-22.53c5.22-5.24,8.15-12.34,8.15-19.73v-48.01l14.26-14.23h-14.26s0,0,0,0h-.01s-92.15.05-92.15.05c-6.24,0-12.21,2.48-16.62,6.89l-36.62,36.62c-2.93,2.93-7.68,2.92-10.6,0l-36.51-36.63c-4.41-4.43-10.41-6.92-16.66-6.92h-99.47l4.83,4.82v57.48c0,7.4,2.93,14.5,8.16,19.74l35.37,35.51v-67.09c0-2.52-.6-4.97-1.7-7.18.86.17,1.74.26,2.63.26h35.75c5.78,0,11.33,2.3,15.42,6.39l49.63,49.63c4.34,4.34,11.39,4.34,15.73,0l49.63-49.63c4.09-4.09,9.64-6.39,15.42-6.39h35.68c-.92,2.06-1.43,4.3-1.43,6.61v14.16c0,.15-.02.29-.02.43h-24.99c-5.81,0-11.39,2.32-15.49,6.44l-22.43,22.53c-5.22,5.24-8.15,12.34-8.15,19.73v48.01l-14.26,14.23h14.26s0,0,0,0h0s92.15-.05,92.15-.05c6.24,0,12.22-2.48,16.62-6.89l36.62-36.62c2.93-2.93,7.68-2.92,10.6,0l36.51,36.63c4.41,4.43,10.41,6.92,16.66,6.92h99.47l-4.83-4.82v-57.48c0-7.4-2.93-14.5-8.16-19.74l-35.37-35.51v67.09c0,2.52.6,4.97,1.7,7.18-.86-.17-1.74-.26-2.63-.26h-35.75c-5.78,0-11.33-2.3-15.42-6.39l-49.63-49.63c-4.34-4.34-11.39-4.34-15.73,0l-49.63,49.63c-4.09,4.09-9.64,6.39-15.42,6.39h-35.68c.92-2.06,1.43-4.3,1.43-6.61v-14.16Z"/>
      <path d="m1011.36,745.11c-5.78,0-11.33-2.3-15.42-6.39l-49.63-49.63c-4.34-4.34-11.39-4.34-15.73,0l-49.63,49.63c-4.09,4.09-9.64,6.39-15.42,6.39h-35.68c.92-2.06,1.43-4.3,1.43-6.61v-14.16c0-.15.02-.29.02-.43h24.99c5.81,0,11.39-2.32,15.49-6.44l22.42-22.53c5.22-5.24,8.15-12.34,8.15-19.73v-48.01l14.26-14.23h-14.26s0,0,0,0h-.01s-92.15.05-92.15.05c-6.24,0-12.21,2.48-16.62,6.89l-36.62,36.62c-2.93,2.93-7.68,2.92-10.6,0l-36.51-36.63c-4.41-4.43-10.41-6.92-16.66-6.92h-99.47l4.83,4.82v57.48c0,7.4,2.93,14.5,8.16,19.74l35.37,35.51v-67.09c0-2.52-.6-4.97-1.7-7.18.86.17,1.74.26,2.63.26h35.75c5.78,0,11.33,2.3,15.42,6.39l49.63,49.63c4.34,4.34,11.39,4.34,15.73,0l49.63-49.63c4.09-4.09,9.64-6.39,15.42-6.39h35.68c-.92,2.06-1.43,4.3-1.43,6.61v14.16c0,.15-.02.29-.02.43h-24.99c-5.81,0-11.39,2.32-15.49,6.44l-22.43,22.53c-5.22,5.24-8.15,12.34-8.15,19.73v48.01l-14.26,14.23h14.26s0,0,0,0h0s92.15-.05,92.15-.05c6.24,0,12.22-2.48,16.62-6.89l36.62-36.62c2.93-2.93,7.68-2.92,10.6,0l36.51,36.63c4.41,4.43,10.41,6.92,16.66,6.92h99.47l-4.83-4.82v-57.48c0-7.4-2.93-14.5-8.16-19.74l-35.37-35.51v67.09c0,2.52.6,4.97,1.7,7.18-.86-.17-1.74-.26-2.63-.26h-35.75Z"/>
      <path d="m1019.28,1337.29c0-.15.02-.29.02-.43h24.99c5.81,0,11.39-2.32,15.49-6.44l22.42-22.53c5.22-5.24,8.15-12.34,8.15-19.73v-48.01l14.26-14.23h-14.26s0,0,0,0h-.01s-92.15.05-92.15.05c-6.24,0-12.21,2.48-16.62,6.89l-36.62,36.62c-2.93,2.93-7.68,2.92-10.6,0l-36.51-36.63c-4.41-4.43-10.41-6.92-16.66-6.92h-99.47l4.83,4.82v57.48c0,7.4,2.93,14.5,8.16,19.74l35.37,35.51v-67.09c0-2.52-.6-4.97-1.7-7.18.86.17,1.74.26,2.63.26h35.75c5.78,0,11.33,2.3,15.42,6.39l49.63,49.63c4.34,4.34,11.39,4.34,15.73,0l49.63-49.63c4.09-4.09,9.64-6.39,15.42-6.39h35.68c-.92,2.06-1.43,4.3-1.43,6.61v14.16c0,.15-.02.29-.02.43h-24.99c-5.81,0-11.39,2.32-15.49,6.44l-22.43,22.53c-5.22,5.24-8.15,12.34-8.15,19.73v48.01l-14.26,14.23h14.26s0,0,0,0h0s92.15-.05,92.15-.05c6.24,0,12.22-2.48,16.62-6.89l36.62-36.62c2.93-2.93,7.68-2.92,10.6,0l36.51,36.63c4.41,4.43,10.41,6.92,16.66,6.92h99.47l-4.83-4.82v-57.48c0-7.4-2.93-14.5-8.16-19.74l-35.37-35.51v67.09c0,2.52.6,4.97,1.7,7.18-.86-.17-1.74-.26-2.63-.26h-35.75c-5.78,0-11.33-2.3-15.42-6.39l-49.63-49.63c-4.34-4.34-11.39-4.34-15.73,0l-49.63,49.63c-4.09,4.09-9.64,6.39-15.42,6.39h-35.68c.92-2.06,1.43-4.3,1.43-6.61v-14.16Z"/>
      <path d="m1011.36,1153.74c-5.78,0-11.33-2.3-15.42-6.39l-49.63-49.63c-4.34-4.34-11.39-4.34-15.73,0l-49.63,49.63c-4.09,4.09-9.64,6.39-15.42,6.39h-35.68c.92-2.06,1.43-4.3,1.43-6.61v-14.16c0-.15.02-.29.02-.43h24.99c5.81,0,11.39-2.32,15.49-6.44l22.42-22.53c5.22-5.24,8.15-12.34,8.15-19.73v-48.01l14.26-14.23h-14.26s0,0,0,0h-.01s-92.15.05-92.15.05c-6.24,0-12.21,2.48-16.62,6.89l-36.62,36.62c-2.93,2.93-7.68,2.92-10.6,0l-36.51-36.63c-4.41-4.43-10.41-6.92-16.66-6.92h-99.47l4.83,4.82v57.48c0,7.4,2.93,14.5,8.16,19.74l35.37,35.51v-67.09c0-2.52-.6-4.97-1.7-7.18.86.17,1.74.26,2.63.26h35.75c5.78,0,11.33,2.3,15.42,6.39l49.63,49.63c4.34,4.34,11.39,4.34,15.73,0l49.63-49.63c4.09-4.09,9.64-6.39,15.42-6.39h35.68c-.92,2.06-1.43,4.3-1.43,6.61v14.16c0,.15-.02.29-.02.43h-24.99c-5.81,0-11.39,2.32-15.49,6.44l-22.43,22.53c-5.22,5.24-8.15,12.34-8.15,19.73v48.01l-14.26,14.23h14.26s0,0,0,0h0s92.15-.05,92.15-.05c6.24,0,12.22-2.48,16.62-6.89l36.62-36.62c2.93-2.93,7.68-2.92,10.6,0l36.51,36.63c4.41,4.43,10.41,6.92,16.66,6.92h99.47l-4.83-4.82v-57.48c0-7.4-2.93-14.5-8.16-19.74l-35.37-35.51v67.09c0,2.52.6,4.97,1.7,7.18-.86-.17-1.74-.26-2.63-.26h-35.75Z"/>
      <path d="m916.62,1430.22l-14.27,14.24v41.3h-43.53v-5.4c0-2.3.51-4.55,1.43-6.61h-35.68c-5.78,0-11.33,2.3-15.42,6.39l-5.62,5.62h-103.75l-5.62-5.62c-4.09-4.09-9.64-6.39-15.42-6.39h-35.75c-.89,0-1.77-.09-2.64-.26,1.1,2.22,1.7,4.67,1.7,7.19v5.08h-43.52v-50.72l-4.83-4.82h99.47c6.25,0,12.24,2.49,16.66,6.92l36.51,36.63c2.93,2.93,7.68,2.94,10.6,0l36.63-36.62c4.4-4.41,10.38-6.89,16.62-6.89l92.15-.04h14.28Z"/>
      <path d="m714.33.01l-92.15.04c-6.24,0-12.21,2.48-16.62,6.89l-36.62,36.62c-2.93,2.93-7.68,2.92-10.6,0l-36.51-36.63C517.41,2.49,511.41,0,505.16,0h-99.47l4.83,4.82v57.48c0,7.4,2.93,14.5,8.16,19.74l35.37,35.51V50.46c0-2.52-.6-4.97-1.7-7.18.86.17,1.74.26,2.63.26h35.75c5.78,0,11.33,2.3,15.42,6.39l49.63,49.63c4.34,4.34,11.39,4.34,15.73,0l49.63-49.63c4.09-4.09,9.64-6.39,15.42-6.39h35.68c-.92,2.06-1.43,4.3-1.43,6.61v14.16c0,.15-.02.29-.02.43h-24.99c-5.81,0-11.39,2.32-15.49,6.44l-22.43,22.53c-5.22,5.24-8.15,12.34-8.15,19.73v48.01l-14.26,14.23h14.26s0,0,0,0h0s92.15-.05,92.15-.05c6.24,0,12.22-2.48,16.62-6.89l36.62-36.62c2.93-2.93,7.68-2.92,10.6,0l36.51,36.63c4.41,4.43,10.41,6.92,16.66,6.92h99.47l-4.83-4.82v-57.48c0-7.4-2.93-14.5-8.16-19.74l-35.37-35.51v67.09c0,2.52.6,4.97,1.7,7.18-.86-.17-1.74-.26-2.63-.26h-35.75c-5.78,0-11.33-2.3-15.42-6.39l-49.63-49.63c-4.34-4.34-11.39-4.34-15.73,0l-49.63,49.63c-4.09,4.09-9.64,6.39-15.42,6.39h-35.68c.92-2.06,1.43-4.3,1.43-6.61v-14.16c0-.15.02-.29.02-.43h24.99c5.81,0,11.39-2.32,15.49-6.44l22.42-22.53c5.22-5.24,8.15-12.34,8.15-19.73V14.24L728.61,0h-14.26s0,0,0,0h-.01Z"/>
      <path d="m490.73,452.17c5.78,0,11.33,2.3,15.42,6.39l49.63,49.63c4.34,4.34,11.39,4.34,15.73,0l49.63-49.63c4.09-4.09,9.64-6.39,15.42-6.39h35.68c-.92,2.06-1.43,4.3-1.43,6.61v14.16c0,.15-.02.29-.02.43h-24.99c-5.81,0-11.39,2.32-15.49,6.44l-22.43,22.53c-5.22,5.24-8.15,12.34-8.15,19.73v48.01l-14.26,14.23h14.26s0,0,0,0h0s92.15-.05,92.15-.05c6.24,0,12.22-2.48,16.62-6.89l36.62-36.62c2.93-2.93,7.68-2.92,10.6,0l36.51,36.63c4.41,4.43,10.41,6.92,16.66,6.92h99.47l-4.83-4.82v-57.48c0-7.4-2.93-14.5-8.16-19.74l-35.37-35.51v67.09c0,2.52.6,4.97,1.7,7.18-.86-.17-1.74-.26-2.63-.26h-35.75c-5.78,0-11.33-2.3-15.42-6.39l-49.63-49.63c-4.34-4.34-11.39-4.34-15.73,0l-49.63,49.63c-4.09,4.09-9.64,6.39-15.42,6.39h-35.68c.92-2.06,1.43-4.3,1.43-6.61v-14.16c0-.15.02-.29.02-.43h24.99c5.81,0,11.39-2.32,15.49-6.44l22.42-22.53c5.22-5.24,8.15-12.34,8.15-19.73v-48.01l14.26-14.23h-14.26s0,0,0,0h-.01s-92.15.05-92.15.05c-6.24,0-12.21,2.48-16.62,6.89l-36.62,36.62c-2.93,2.93-7.68,2.92-10.6,0l-36.51-36.63c-4.41-4.43-10.41-6.92-16.66-6.92h-99.47l4.83,4.82v57.48c0,7.4,2.93,14.5,8.16,19.74l35.37,35.51v-67.09c0-2.52-.6-4.97-1.7-7.18.86.17,1.74.26,2.63.26h35.75Z"/>
      <path d="m482.81,268.61c0,.15-.02.29-.02.43h-24.99c-5.81,0-11.39,2.32-15.49,6.44l-22.43,22.53c-5.22,5.24-8.15,12.34-8.15,19.73v48.01l-14.26,14.23h14.26s0,0,0,0h0s92.15-.05,92.15-.05c6.24,0,12.22-2.48,16.62-6.89l36.62-36.62c2.93-2.93,7.68-2.92,10.6,0l36.51,36.63c4.41,4.43,10.41,6.92,16.66,6.92h99.47l-4.83-4.82v-57.48c0-7.4-2.93-14.5-8.16-19.74l-35.37-35.51v67.09c0,2.52.6,4.97,1.7,7.18-.86-.17-1.74-.26-2.63-.26h-35.75c-5.78,0-11.33-2.3-15.42-6.39l-49.63-49.63c-4.34-4.34-11.39-4.34-15.73,0l-49.63,49.63c-4.09,4.09-9.64,6.39-15.42,6.39h-35.68c.92-2.06,1.43-4.3,1.43-6.61v-14.16c0-.15.02-.29.02-.43h24.99c5.81,0,11.39-2.32,15.49-6.44l22.42-22.53c5.22-5.24,8.15-12.34,8.15-19.73v-48.01l14.26-14.23h-14.26s0,0,0,0h-.01s-92.15.05-92.15.05c-6.24,0-12.21,2.48-16.62,6.89l-36.62,36.62c-2.93,2.93-7.68,2.92-10.6,0l-36.51-36.63c-4.41-4.43-10.41-6.92-16.66-6.92h-99.47l4.83,4.82v57.48c0,7.4,2.93,14.5,8.16,19.74l35.37,35.51v-67.09c0-2.52-.6-4.97-1.7-7.18.86.17,1.74.26,2.63.26h35.75c5.78,0,11.33,2.3,15.42,6.39l49.63,49.63c4.34,4.34,11.39,4.34,15.73,0l49.63-49.63c4.09-4.09,9.64-6.39,15.42-6.39h35.68c-.92,2.06-1.43,4.3-1.43,6.61v14.16Z"/>
      <path d="m490.73,860.8c5.78,0,11.33,2.3,15.42,6.39l49.63,49.63c4.34,4.34,11.39,4.34,15.73,0l49.63-49.63c4.09-4.09,9.64-6.39,15.42-6.39h35.68c-.92,2.06-1.43,4.3-1.43,6.61v14.16c0,.15-.02.29-.02.43h-24.99c-5.81,0-11.39,2.32-15.49,6.44l-22.43,22.53c-5.22,5.24-8.15,12.34-8.15,19.73v48.01l-14.26,14.23h14.26s0,0,0,0h0s92.15-.05,92.15-.05c6.24,0,12.22-2.48,16.62-6.89l36.62-36.62c2.93-2.93,7.68-2.92,10.6,0l36.51,36.63c4.41,4.43,10.41,6.92,16.66,6.92h99.47l-4.83-4.82v-57.48c0-7.4-2.93-14.5-8.16-19.74l-35.37-35.51v67.09c0,2.52.6,4.97,1.7,7.18-.86-.17-1.74-.26-2.63-.26h-35.75c-5.78,0-11.33-2.3-15.42-6.39l-49.63-49.63c-4.34-4.34-11.39-4.34-15.73,0l-49.63,49.63c-4.09,4.09-9.64,6.39-15.42,6.39h-35.68c.92-2.06,1.43-4.3,1.43-6.61v-14.16c0-.15.02-.29.02-.43h24.99c5.81,0,11.39-2.32,15.49-6.44l22.42-22.53c5.22-5.24,8.15-12.34,8.15-19.73v-48.01l14.26-14.23h-14.26s0,0,0,0h-.01s-92.15.05-92.15.05c-6.24,0-12.21,2.48-16.62,6.89l-36.62,36.62c-2.93,2.93-7.68,2.92-10.6,0l-36.51-36.63c-4.41-4.43-10.41-6.92-16.66-6.92h-99.47l4.83,4.82v57.48c0,7.4,2.93,14.5,8.16,19.74l35.37,35.51v-67.09c0-2.52-.6-4.97-1.7-7.18.86.17,1.74.26,2.63.26h35.75Z"/>
      <path d="m482.81,677.25c0,.15-.02.29-.02.43h-24.99c-5.81,0-11.39,2.32-15.49,6.44l-22.43,22.53c-5.22,5.24-8.15,12.34-8.15,19.73v48.01l-14.26,14.23h14.26s0,0,0,0h0s92.15-.05,92.15-.05c6.24,0,12.22-2.48,16.62-6.89l36.62-36.62c2.93-2.93,7.68-2.92,10.6,0l36.51,36.63c4.41,4.43,10.41,6.92,16.66,6.92h99.47l-4.83-4.82v-57.48c0-7.4-2.93-14.5-8.16-19.74l-35.37-35.51v67.09c0,2.52.6,4.97,1.7,7.18-.86-.17-1.74-.26-2.63-.26h-35.75c-5.78,0-11.33-2.3-15.42-6.39l-49.63-49.63c-4.34-4.34-11.39-4.34-15.73,0l-49.63,49.63c-4.09,4.09-9.64,6.39-15.42,6.39h-35.68c.92-2.06,1.43-4.3,1.43-6.61v-14.16c0-.15.02-.29.02-.43h24.99c5.81,0,11.39-2.32,15.49-6.44l22.42-22.53c5.22-5.24,8.15-12.34,8.15-19.73v-48.01l14.26-14.23h-14.26s0,0,0,0h-.01s-92.15.05-92.15.05c-6.24,0-12.21,2.48-16.62,6.89l-36.62,36.62c-2.93,2.93-7.68,2.92-10.6,0l-36.51-36.63c-4.41-4.43-10.41-6.92-16.66-6.92h-99.47l4.83,4.82v57.48c0,7.4,2.93,14.5,8.16,19.74l35.37,35.51v-67.09c0-2.52-.6-4.97-1.7-7.18.86.17,1.74.26,2.63.26h35.75c5.78,0,11.33,2.3,15.42,6.39l49.63,49.63c4.34,4.34,11.39,4.34,15.73,0l49.63-49.63c4.09-4.09,9.64-6.39,15.42-6.39h35.68c-.92,2.06-1.43,4.3-1.43,6.61v14.16Z"/>
      <path d="m599.75,1401.58l92.15-.04c6.24,0,12.22-2.48,16.62-6.89l36.62-36.62c2.93-2.93,7.68-2.92,10.6,0l36.51,36.63c4.41,4.43,10.41,6.92,16.66,6.92h99.47l-4.83-4.82v-57.48c0-7.4-2.93-14.5-8.16-19.74l-35.37-35.51v67.09c0,2.52.6,4.97,1.7,7.18-.86-.17-1.74-.26-2.63-.26h-35.75c-5.78,0-11.33-2.3-15.42-6.39l-49.63-49.63c-4.34-4.34-11.39-4.34-15.73,0l-49.63,49.63c-4.09,4.09-9.64,6.39-15.42,6.39h-35.68c.92-2.06,1.43-4.3,1.43-6.61v-14.16c0-.15.02-.29.02-.43h24.99c5.81,0,11.39-2.32,15.49-6.44l22.42-22.53c5.22-5.24,8.15-12.34,8.15-19.73v-48.01l14.26-14.23h-14.26s0,0,0,0h-.01s-92.15.05-92.15.05c-6.24,0-12.21,2.48-16.62,6.89l-36.62,36.62c-2.93,2.93-7.68,2.92-10.6,0l-36.51-36.63c-4.41-4.43-10.41-6.92-16.66-6.92h-99.47l4.83,4.82v57.48c0,7.4,2.93,14.5,8.16,19.74l35.37,35.51v-67.09c0-2.52-.6-4.97-1.7-7.18.86.17,1.74.26,2.63.26h35.75c5.78,0,11.33,2.3,15.42,6.39l49.63,49.63c4.34,4.34,11.39,4.34,15.73,0l49.63-49.63c4.09-4.09,9.64-6.39,15.42-6.39h35.68c-.92,2.06-1.43,4.3-1.43,6.61v14.16c0,.15-.02.29-.02.43h-24.99c-5.81,0-11.39,2.32-15.49,6.44l-22.43,22.53c-5.22,5.24-8.15,12.34-8.15,19.73v48.01l-14.26,14.23h14.26s0,0,0,0h0Z"/>
      <path d="m482.81,1085.88c0,.15-.02.29-.02.43h-24.99c-5.81,0-11.39,2.32-15.49,6.44l-22.43,22.53c-5.22,5.24-8.15,12.34-8.15,19.73v48.01l-14.26,14.23h14.26s0,0,0,0h0s92.15-.05,92.15-.05c6.24,0,12.22-2.48,16.62-6.89l36.62-36.62c2.93-2.93,7.68-2.92,10.6,0l36.51,36.63c4.41,4.43,10.41,6.92,16.66,6.92h99.47l-4.83-4.82v-57.48c0-7.4-2.93-14.5-8.16-19.74l-35.37-35.51v67.09c0,2.52.6,4.97,1.7,7.18-.86-.17-1.74-.26-2.63-.26h-35.75c-5.78,0-11.33-2.3-15.42-6.39l-49.63-49.63c-4.34-4.34-11.39-4.34-15.73,0l-49.63,49.63c-4.09,4.09-9.64,6.39-15.42,6.39h-35.68c.92-2.06,1.43-4.3,1.43-6.61v-14.16c0-.15.02-.29.02-.43h24.99c5.81,0,11.39-2.32,15.49-6.44l22.42-22.53c5.22-5.24,8.15-12.34,8.15-19.73v-48.01l14.26-14.23h-14.26s0,0,0,0h-.01s-92.15.05-92.15.05c-6.24,0-12.21,2.48-16.62,6.89l-36.62,36.62c-2.93,2.93-7.68,2.92-10.6,0l-36.51-36.63c-4.41-4.43-10.41-6.92-16.66-6.92h-99.47l4.83,4.82v57.48c0,7.4,2.93,14.5,8.16,19.74l35.37,35.51v-67.09c0-2.52-.6-4.97-1.7-7.18.86.17,1.74.26,2.63.26h35.75c5.78,0,11.33,2.3,15.42,6.39l49.63,49.63c4.34,4.34,11.39,4.34,15.73,0l49.63-49.63c4.09-4.09,9.64-6.39,15.42-6.39h35.68c-.92,2.06-1.43,4.3-1.43,6.61v14.16Z"/>
      <path d="m540.6,1430.22l-14.26,14.24v41.3h-43.53v-5.4c0-2.3.51-4.55,1.43-6.61h-35.68c-5.79,0-11.33,2.3-15.42,6.39l-5.62,5.62h-103.75l-5.62-5.62c-4.09-4.09-9.64-6.39-15.42-6.39h-35.76c-.89,0-1.77-.09-2.63-.26,1.1,2.22,1.7,4.67,1.7,7.19v5.08h-43.53v-50.72l-4.82-4.82h99.47c6.25,0,12.24,2.49,16.66,6.92l36.51,36.63c2.92,2.93,7.67,2.94,10.6,0l36.62-36.62c4.41-4.41,10.39-6.89,16.63-6.89l92.15-.04h14.27Z"/>
      <path d="m156.37,175.68H56.9c-6.25,0-12.25-2.49-16.66-6.91L3.73,132.14c-1.06-1.06-2.36-1.75-3.73-2.03v-57.12c2.3.33,4.51,1.38,6.28,3.15l49.63,49.63c4.09,4.09,9.64,6.38,15.42,6.38h35.75c.89,0,1.77.09,2.63.26-1.09-2.21-1.7-4.66-1.7-7.18V58.14l35.37,35.5c5.23,5.24,8.16,12.34,8.16,19.75v57.47l4.83,4.82Z"/>
      <path d="m114.72,43.53c5.78,0,11.33,2.3,15.42,6.39l49.63,49.63c4.34,4.34,11.39,4.34,15.73,0l49.63-49.63c4.09-4.09,9.64-6.39,15.42-6.39h35.68c-.92,2.06-1.43,4.3-1.43,6.61v14.16c0,.15-.02.29-.02.43h-24.99c-5.81,0-11.39,2.32-15.49,6.44l-22.43,22.53c-5.22,5.24-8.15,12.34-8.15,19.73v48.01l-14.26,14.23h14.26s0,0,0,0h0s92.15-.05,92.15-.05c6.24,0,12.22-2.48,16.62-6.89l36.62-36.62c2.93-2.93,7.68-2.92,10.6,0l36.51,36.63c4.41,4.43,10.41,6.92,16.66,6.92h99.47l-4.83-4.82v-57.48c0-7.4-2.93-14.5-8.16-19.74l-35.37-35.51v67.09c0,2.52.6,4.97,1.7,7.18-.86-.17-1.74-.26-2.63-.26h-35.75c-5.78,0-11.33-2.3-15.42-6.39l-49.63-49.63c-4.34-4.34-11.39-4.34-15.73,0l-49.63,49.63c-4.09,4.09-9.64,6.39-15.42,6.39h-35.68c.92-2.06,1.43-4.3,1.43-6.61v-14.16c0-.15.02-.29.02-.43h24.99c5.81,0,11.39-2.32,15.49-6.44l22.42-22.53c5.22-5.24,8.15-12.34,8.15-19.73V14.24L352.6,0h-14.26s0,0,0,0h-.01s-92.15.05-92.15.05c-6.24,0-12.21,2.48-16.62,6.89l-36.62,36.62c-2.93,2.93-7.68,2.92-10.6,0L145.81,6.92C141.4,2.49,135.4,0,129.15,0H29.68l4.83,4.82v57.48c0,7.4,2.93,14.5,8.16,19.74l35.37,35.51V50.46c0-2.52-.6-4.97-1.7-7.18.86.17,1.74.26,2.63.26h35.75Z"/>
      <path d="m156.37,584.32H56.9c-6.25,0-12.25-2.49-16.66-6.92l-36.51-36.63c-1.06-1.06-2.36-1.74-3.73-2.02v-57.12c2.3.33,4.51,1.37,6.28,3.14l49.63,49.63c4.09,4.09,9.64,6.39,15.42,6.39h35.75c.89,0,1.77.09,2.63.26-1.09-2.22-1.7-4.67-1.7-7.19v-67.09l35.37,35.51c5.23,5.24,8.16,12.34,8.16,19.74v57.48l4.83,4.82Z"/>
      <path d="m114.72,452.17c5.78,0,11.33,2.3,15.42,6.39l49.63,49.63c4.34,4.34,11.39,4.34,15.73,0l49.63-49.63c4.09-4.09,9.64-6.39,15.42-6.39h35.68c-.92,2.06-1.43,4.3-1.43,6.61v14.16c0,.15-.02.29-.02.43h-24.99c-5.81,0-11.39,2.32-15.49,6.44l-22.43,22.53c-5.22,5.24-8.15,12.34-8.15,19.73v48.01l-14.26,14.23h14.26s0,0,0,0h0s92.15-.05,92.15-.05c6.24,0,12.22-2.48,16.62-6.89l36.62-36.62c2.93-2.93,7.68-2.92,10.6,0l36.51,36.63c4.41,4.43,10.41,6.92,16.66,6.92h99.47l-4.83-4.82v-57.48c0-7.4-2.93-14.5-8.16-19.74l-35.37-35.51v67.09c0,2.52.6,4.97,1.7,7.18-.86-.17-1.74-.26-2.63-.26h-35.75c-5.78,0-11.33-2.3-15.42-6.39l-49.63-49.63c-4.34-4.34-11.39-4.34-15.73,0l-49.63,49.63c-4.09,4.09-9.64,6.39-15.42,6.39h-35.68c.92-2.06,1.43-4.3,1.43-6.61v-14.16c0-.15.02-.29.02-.43h24.99c5.81,0,11.39-2.32,15.49-6.44l22.42-22.53c5.22-5.24,8.15-12.34,8.15-19.73v-48.01l14.26-14.23h-14.26s0,0,0,0h-.01s-92.15.05-92.15.05c-6.24,0-12.21,2.48-16.62,6.89l-36.62,36.62c-2.93,2.93-7.68,2.92-10.6,0l-36.51-36.63c-4.41-4.43-10.41-6.92-16.66-6.92H29.68l4.83,4.82v57.48c0,7.4,2.93,14.5,8.16,19.74l35.37,35.51v-67.09c0-2.52-.6-4.97-1.7-7.18.86.17,1.74.26,2.63.26h35.75Z"/>
      <path d="m344.38,380h-99.47c-6.26,0-12.25-2.49-16.66-6.92l-36.52-36.63c-2.92-2.93-7.67-2.93-10.6,0l-36.62,36.62c-4.41,4.41-10.39,6.88-16.62,6.89l-92.16.03h-.01s0,0,0,0h-14.26s14.26-14.22,14.26-14.22v-48.02c0-7.39,2.93-14.49,8.15-19.73l22.43-22.54c4.1-4.12,9.67-6.44,15.49-6.44h24.99c0-.14.02-.28.02-.43v-14.16c0-2.3.5-4.54,1.43-6.6h-35.68c-5.79,0-11.33,2.3-15.42,6.39l-49.64,49.63c-2.08,2.08-4.77,3.15-7.49,3.24v-57.06c1.78-.08,3.55-.81,4.92-2.18l36.62-36.62c4.41-4.41,10.39-6.88,16.62-6.89l92.16-.03h14.27s-14.26,14.22-14.26,14.22v48.02c0,7.39-2.93,14.49-8.15,19.73l-22.43,22.54c-4.1,4.12-9.67,6.44-15.48,6.44h-25c0,.14-.02.28-.02.43v14.15c0,2.31-.5,4.55-1.43,6.61h35.68c5.79,0,11.34-2.3,15.42-6.39l49.64-49.63c4.34-4.34,11.38-4.34,15.73,0l49.63,49.63c4.09,4.09,9.63,6.39,15.42,6.39h35.75c.89,0,1.77.09,2.63.26-1.1-2.22-1.7-4.67-1.7-7.18v-67.1l35.37,35.51c5.22,5.24,8.16,12.34,8.16,19.74v57.48l4.83,4.82Z"/>
      <path d="m156.37,992.95H56.9c-6.25,0-12.25-2.49-16.66-6.92l-36.51-36.62c-1.06-1.06-2.36-1.75-3.73-2.03v-57.13c2.3.33,4.51,1.38,6.28,3.15l49.63,49.63c4.09,4.09,9.64,6.39,15.42,6.39h35.75c.89,0,1.77.09,2.63.26-1.09-2.21-1.7-4.66-1.7-7.18v-67.09l35.37,35.5c5.23,5.24,8.16,12.34,8.16,19.74v57.48l4.83,4.82Z"/>
      <path d="m114.72,860.8c5.78,0,11.33,2.3,15.42,6.39l49.63,49.63c4.34,4.34,11.39,4.34,15.73,0l49.63-49.63c4.09-4.09,9.64-6.39,15.42-6.39h35.68c-.92,2.06-1.43,4.3-1.43,6.61v14.16c0,.15-.02.29-.02.43h-24.99c-5.81,0-11.39,2.32-15.49,6.44l-22.43,22.53c-5.22,5.24-8.15,12.34-8.15,19.73v48.01l-14.26,14.23h14.26s0,0,0,0h0s92.15-.05,92.15-.05c6.24,0,12.22-2.48,16.62-6.89l36.62-36.62c2.93-2.93,7.68-2.92,10.6,0l36.51,36.63c4.41,4.43,10.41,6.92,16.66,6.92h99.47l-4.83-4.82v-57.48c0-7.4-2.93-14.5-8.16-19.74l-35.37-35.51v67.09c0,2.52.6,4.97,1.7,7.18-.86-.17-1.74-.26-2.63-.26h-35.75c-5.78,0-11.33-2.3-15.42-6.39l-49.63-49.63c-4.34-4.34-11.39-4.34-15.73,0l-49.63,49.63c-4.09,4.09-9.64,6.39-15.42,6.39h-35.68c.92-2.06,1.43-4.3,1.43-6.61v-14.16c0-.15.02-.29.02-.43h24.99c5.81,0,11.39-2.32,15.49-6.44l22.42-22.53c5.22-5.24,8.15-12.34,8.15-19.73v-48.01l14.26-14.23h-14.26s0,0,0,0h-.01s-92.15.05-92.15.05c-6.24,0-12.21,2.48-16.62,6.89l-36.62,36.62c-2.93,2.93-7.68,2.92-10.6,0l-36.51-36.63c-4.41-4.43-10.41-6.92-16.66-6.92H29.68l4.83,4.82v57.48c0,7.4,2.93,14.5,8.16,19.74l35.37,35.51v-67.09c0-2.52-.6-4.97-1.7-7.18.86.17,1.74.26,2.63.26h35.75Z"/>
      <path d="m344.38,788.63h-99.47c-6.26,0-12.25-2.49-16.66-6.91l-36.52-36.63c-2.92-2.93-7.67-2.94-10.6,0l-36.62,36.62c-4.41,4.41-10.39,6.89-16.62,6.89l-92.16.04h-.01s0,0,0,0h-14.26l14.26-14.23v-48.01c0-7.4,2.93-14.5,8.15-19.74l22.43-22.53c4.1-4.12,9.67-6.44,15.49-6.44h24.99c0-.14.02-.29.02-.43v-14.16c0-2.3.5-4.55,1.43-6.61h-35.68c-5.79,0-11.33,2.3-15.42,6.39l-49.64,49.63c-2.08,2.08-4.77,3.16-7.49,3.25v-57.07c1.78-.08,3.55-.8,4.92-2.17l36.62-36.62c4.41-4.41,10.39-6.89,16.62-6.89l92.16-.04h14.27l-14.26,14.23v48.01c0,7.4-2.93,14.49-8.15,19.74l-22.43,22.53c-4.1,4.12-9.67,6.44-15.48,6.44h-25c0,.14-.02.28-.02.43v14.16c0,2.3-.5,4.54-1.43,6.61h35.68c5.79,0,11.34-2.3,15.42-6.39l49.64-49.63c4.34-4.35,11.38-4.35,15.73,0l49.63,49.63c4.09,4.09,9.63,6.39,15.42,6.39h35.75c.89,0,1.77.08,2.63.25-1.1-2.21-1.7-4.66-1.7-7.18v-67.09l35.37,35.5c5.22,5.25,8.16,12.35,8.16,19.75v57.47l4.83,4.82Z"/>
      <path d="m156.37,1401.58H56.9c-6.25,0-12.25-2.48-16.66-6.91l-36.51-36.63c-1.06-1.06-2.36-1.74-3.73-2.02v-57.13c2.3.33,4.51,1.38,6.28,3.15l49.63,49.63c4.09,4.09,9.64,6.39,15.42,6.39h35.75c.89,0,1.77.09,2.63.25-1.09-2.21-1.7-4.66-1.7-7.18v-67.09l35.37,35.5c5.23,5.25,8.16,12.35,8.16,19.75v57.48l4.83,4.81Z"/>
      <path d="m114.72,1269.43c5.78,0,11.33,2.3,15.42,6.39l49.63,49.63c4.34,4.34,11.39,4.34,15.73,0l49.63-49.63c4.09-4.09,9.64-6.39,15.42-6.39h35.68c-.92,2.06-1.43,4.3-1.43,6.61v14.16c0,.15-.02.29-.02.43h-24.99c-5.81,0-11.39,2.32-15.49,6.44l-22.43,22.53c-5.22,5.24-8.15,12.34-8.15,19.73v48.01l-14.26,14.23h14.26s0,0,0,0h0s92.15-.05,92.15-.05c6.24,0,12.22-2.48,16.62-6.89l36.62-36.62c2.93-2.93,7.68-2.92,10.6,0l36.51,36.63c4.41,4.43,10.41,6.92,16.66,6.92h99.47l-4.83-4.82v-57.48c0-7.4-2.93-14.5-8.16-19.74l-35.37-35.51v67.09c0,2.52.6,4.97,1.7,7.18-.86-.17-1.74-.26-2.63-.26h-35.75c-5.78,0-11.33-2.3-15.42-6.39l-49.63-49.63c-4.34-4.34-11.39-4.34-15.73,0l-49.63,49.63c-4.09,4.09-9.64,6.39-15.42,6.39h-35.68c.92-2.06,1.43-4.3,1.43-6.61v-14.16c0-.15.02-.29.02-.43h24.99c5.81,0,11.39-2.32,15.49-6.44l22.42-22.53c5.22-5.24,8.15-12.34,8.15-19.73v-48.01l14.26-14.23h-14.26s0,0,0,0h-.01s-92.15.05-92.15.05c-6.24,0-12.21,2.48-16.62,6.89l-36.62,36.62c-2.93,2.93-7.68,2.92-10.6,0l-36.51-36.63c-4.41-4.43-10.41-6.92-16.66-6.92H29.68l4.83,4.82v57.48c0,7.4,2.93,14.5,8.16,19.74l35.37,35.51v-67.09c0-2.52-.6-4.97-1.7-7.18.86.17,1.74.26,2.63.26h35.75Z"/>
      <path d="m344.38,1197.27h-99.47c-6.26,0-12.25-2.49-16.66-6.92l-36.52-36.63c-2.92-2.93-7.67-2.93-10.6-.01l-36.62,36.63c-4.41,4.4-10.39,6.88-16.62,6.89l-92.16.03h-.01s0,0,0,0h-14.26s14.26-14.23,14.26-14.23v-48.01c0-7.4,2.93-14.49,8.15-19.73l22.43-22.54c4.1-4.12,9.67-6.44,15.49-6.44h24.99c0-.14.02-.28.02-.43v-14.16c0-2.3.5-4.54,1.43-6.6h-35.68c-5.79,0-11.33,2.3-15.42,6.39l-49.64,49.63c-2.08,2.08-4.77,3.16-7.49,3.25v-57.07c1.79-.08,3.56-.82,4.92-2.18l36.62-36.62c4.41-4.41,10.39-6.89,16.62-6.89l92.16-.03h14.27s-14.26,14.22-14.26,14.22v48.02c0,7.39-2.93,14.49-8.15,19.73l-22.43,22.54c-4.1,4.12-9.67,6.43-15.48,6.43h-25c0,.15-.02.29-.02.43v14.16c0,2.31-.5,4.55-1.43,6.61h35.68c5.79,0,11.34-2.3,15.42-6.39l49.64-49.63c4.34-4.34,11.38-4.34,15.73,0l49.63,49.63c4.09,4.09,9.63,6.39,15.42,6.39h35.75c.89,0,1.77.09,2.63.26-1.1-2.22-1.7-4.67-1.7-7.18v-67.1l35.37,35.51c5.22,5.24,8.16,12.34,8.16,19.74v57.48l4.83,4.82Z"/>
      <path d="m164.59,1430.22l-14.26,14.24v41.3h-43.53v-5.4c0-2.3.5-4.55,1.43-6.61h-35.68c-5.79,0-11.33,2.3-15.42,6.39l-5.62,5.62H0v-9.81c1.78-.08,3.55-.8,4.92-2.17l36.62-36.62c4.41-4.41,10.39-6.89,16.62-6.89l92.16-.04h14.27Z"/>
    </g>
  </g>
</svg>